<svg width="28" height="28" viewBox="0 0 28 28" fill="none" xmlns="http://www.w3.org/2000/svg">
<path d="M19.6527 0.666656H8.34743C4.11874 0.666656 0.666748 4.11865 0.666748 8.34735V19.6526C0.666748 23.8813 4.11874 27.3333 8.34743 27.3333H19.6527C23.8814 27.3333 27.3334 23.8813 27.3334 19.6526V8.34735C27.3334 4.11865 23.9677 0.666656 19.6527 0.666656ZM24.917 19.8252C24.917 22.6731 22.6732 24.9169 19.8253 24.9169H8.26113C5.41323 24.9169 3.16944 22.6731 3.16944 19.8252V8.34735C3.16944 5.49945 5.41323 3.25565 8.26113 3.25565H19.8253C22.6732 3.25565 24.917 5.49945 24.917 8.34735V19.8252Z" fill="white"/>
<path d="M14.0427 7.13916C10.2455 7.13916 7.13867 10.246 7.13867 14.0432C7.13867 17.8403 10.2455 20.9471 14.0427 20.9471C17.8399 20.9471 20.9467 17.8403 20.9467 14.0432C20.9467 10.246 17.8399 7.13916 14.0427 7.13916ZM14.0427 18.5307C11.54 18.5307 9.55506 16.5458 9.55506 14.0432C9.55506 11.5405 11.54 9.55556 14.0427 9.55556C16.5454 9.55556 18.5303 11.5405 18.5303 14.0432C18.5303 16.5458 16.5454 18.5307 14.0427 18.5307Z" fill="white"/>
<path d="M21.2061 8.51997C22.1117 8.51997 22.8458 7.78585 22.8458 6.88027C22.8458 5.97469 22.1117 5.24057 21.2061 5.24057C20.3005 5.24057 19.5664 5.97469 19.5664 6.88027C19.5664 7.78585 20.3005 8.51997 21.2061 8.51997Z" fill="white"/>
</svg>
