<svg width="16" height="28" viewBox="0 0 16 28" fill="none" xmlns="http://www.w3.org/2000/svg">
<path fill-rule="evenodd" clip-rule="evenodd" d="M7.29783 0.666687C3.46091 0.666687 0.391357 3.73623 0.391357 7.57316C0.391357 11.4101 3.46091 14.4796 7.29783 14.4796C11.1348 14.4796 14.2043 11.4101 14.2043 7.57316C14.2043 3.73623 11.1348 0.666687 7.29783 0.666687ZM7.39376 10.6427C5.76306 10.6427 4.42013 9.29978 4.42013 7.66908C4.42013 6.03839 5.76306 4.69546 7.39376 4.69546C9.02445 4.69546 10.3674 6.03839 10.3674 7.66908C10.3674 9.29978 9.02445 10.6427 7.39376 10.6427Z" fill="white"/>
<path d="M9.98355 19.6595C11.2305 19.4676 12.5735 19.0839 14.0123 18.5084C14.9716 18.1247 15.4512 16.9736 15.0675 16.0144C14.6838 15.0552 13.5327 14.5755 12.5735 14.9592C6.81808 17.3573 3.07708 15.1511 2.88523 15.0552C2.02192 14.4796 0.870841 14.7674 0.295302 15.7266C-0.280238 16.5899 0.00753277 17.8369 0.966765 18.3165C1.06269 18.4125 2.59746 19.2758 5.18739 19.6595L0.774918 24.0719C0.00753202 24.8393 0.103455 25.9904 0.774918 26.7578C1.15861 27.1415 1.63823 27.3333 2.11784 27.3333C2.59746 27.3333 3.07707 27.1415 3.46077 26.7578L7.48954 22.6331L11.5183 26.7578C11.902 27.1415 12.3816 27.3333 12.8612 27.3333C13.3409 27.3333 13.8205 27.1415 14.2042 26.7578C14.9716 25.9904 14.9716 24.8393 14.2042 24.0719L9.98355 19.6595Z" fill="white"/>
</svg>
