<svg width="29" height="16" viewBox="0 0 29 16" fill="none" xmlns="http://www.w3.org/2000/svg">
<path fill-rule="evenodd" clip-rule="evenodd" d="M14.0228 15.8786H15.7214C15.7214 15.8786 16.1744 15.8786 16.5141 15.5359C16.7406 15.3075 16.7406 14.8505 16.7406 14.8505C16.7406 14.8505 16.7406 12.5658 17.7598 12.2231C18.7789 11.8804 20.1378 14.3936 21.4967 15.4217C22.5158 16.1071 23.3085 15.9929 23.3085 15.9929H27.0455C27.0455 15.9929 28.9705 15.8786 28.0646 14.2793C27.9514 14.1651 27.4984 13.137 25.3468 11.0808C22.9688 8.91031 23.3085 9.25301 26.1395 5.48327C27.8381 3.19857 28.5176 1.82776 28.2911 1.14235C28.0646 0.571174 26.819 0.685408 26.819 0.685408H22.6291C22.6291 0.685408 22.2894 0.685408 22.0629 0.799643C21.8364 0.913878 21.7232 1.25658 21.7232 1.25658C21.7232 1.25658 21.0437 3.08434 20.1378 4.56939C18.326 7.76796 17.5333 7.8822 17.1936 7.76796C16.5141 7.31102 16.6274 5.94021 16.6274 4.91209C16.6274 1.82776 17.0803 0.571173 15.7214 0.228469C15.2685 0.114234 14.9288 0 13.7963 0C12.3242 0 11.0786 2.04268e-07 10.2859 0.342704C9.83294 0.571174 9.49322 1.14235 9.7197 1.14235C9.94618 1.14235 10.6256 1.25658 10.9653 1.71352C11.4183 2.28469 11.4183 3.65551 11.4183 3.65551C11.4183 3.65551 11.6448 7.31102 10.8521 7.76796C10.2859 8.11067 9.49322 7.42526 7.79462 4.56939C6.88869 3.08434 6.20925 1.37082 6.20925 1.37082C6.20925 1.37082 6.09601 1.02811 5.86953 0.913878C5.64305 0.685409 5.19009 0.685408 5.19009 0.685408H1.22668C1.22668 0.685408 0.660482 0.685409 0.434001 0.913878C0.207521 1.14235 0.434001 1.59929 0.434001 1.59929C0.434001 1.59929 3.60473 8.91031 7.11517 12.6801C10.2859 16.1071 14.0228 15.8786 14.0228 15.8786Z" fill="white"/>
</svg>
